<mxfile host="app.diagrams.net" agent="Mozilla/5.0 (Windows NT 10.0; Win64; x64) AppleWebKit/537.36 (KHTML, like Gecko) Chrome/136.0.0.0 Safari/537.36" version="26.2.12">
  <diagram name="Page-1" id="13e1069c-82ec-6db2-03f1-153e76fe0fe0">
    <mxGraphModel dx="577" dy="465" grid="1" gridSize="10" guides="1" tooltips="1" connect="1" arrows="1" fold="1" page="1" pageScale="1" pageWidth="1100" pageHeight="850" background="none" math="0" shadow="0">
      <root>
        <mxCell id="0" />
        <mxCell id="1" parent="0" />
        <mxCell id="7baba1c4bc27f4b0-2" value="Hệ thống" style="shape=umlLifeline;perimeter=lifelinePerimeter;whiteSpace=wrap;html=1;container=1;collapsible=0;recursiveResize=0;outlineConnect=0;rounded=1;shadow=0;comic=0;labelBackgroundColor=none;strokeWidth=1;fontFamily=Verdana;fontSize=12;align=center;" parent="1" vertex="1">
          <mxGeometry x="500" y="70" width="100" height="560" as="geometry" />
        </mxCell>
        <mxCell id="7baba1c4bc27f4b0-10" value="" style="html=1;points=[];perimeter=orthogonalPerimeter;rounded=0;shadow=0;comic=0;labelBackgroundColor=none;strokeWidth=1;fontFamily=Verdana;fontSize=12;align=center;" parent="7baba1c4bc27f4b0-2" vertex="1">
          <mxGeometry x="45" y="100" width="10" height="410" as="geometry" />
        </mxCell>
        <mxCell id="7baba1c4bc27f4b0-11" value="&lt;font face=&quot;Helvetica&quot;&gt;Quản ly sách trong kho&lt;/font&gt;" style="html=1;verticalAlign=bottom;endArrow=block;labelBackgroundColor=none;fontFamily=Verdana;fontSize=12;edgeStyle=elbowEdgeStyle;elbow=vertical;entryX=0.437;entryY=0.305;entryDx=0;entryDy=0;entryPerimeter=0;" parent="1" source="GGcS_LivE_EJH9nV6EPm-6" target="7baba1c4bc27f4b0-2" edge="1">
          <mxGeometry relative="1" as="geometry">
            <mxPoint x="175" y="240" as="sourcePoint" />
            <mxPoint x="420" y="240" as="targetPoint" />
          </mxGeometry>
        </mxCell>
        <mxCell id="GGcS_LivE_EJH9nV6EPm-4" value="" style="shape=umlLifeline;perimeter=lifelinePerimeter;whiteSpace=wrap;html=1;container=1;dropTarget=0;collapsible=0;recursiveResize=0;outlineConnect=0;portConstraint=eastwest;newEdgeStyle={&quot;curved&quot;:0,&quot;rounded&quot;:0};participant=umlActor;" vertex="1" parent="1">
          <mxGeometry x="120" y="60" width="40" height="570" as="geometry" />
        </mxCell>
        <mxCell id="GGcS_LivE_EJH9nV6EPm-6" value="" style="html=1;points=[[0,0,0,0,5],[0,1,0,0,-5],[1,0,0,0,5],[1,1,0,0,-5]];perimeter=orthogonalPerimeter;outlineConnect=0;targetShapes=umlLifeline;portConstraint=eastwest;newEdgeStyle={&quot;curved&quot;:0,&quot;rounded&quot;:0};" vertex="1" parent="GGcS_LivE_EJH9nV6EPm-4">
          <mxGeometry x="15" y="110" width="10" height="410" as="geometry" />
        </mxCell>
        <mxCell id="GGcS_LivE_EJH9nV6EPm-17" value="&lt;span style=&quot;font-weight: normal;&quot;&gt;khách hàng&lt;/span&gt;" style="text;align=center;fontStyle=1;verticalAlign=middle;spacingLeft=3;spacingRight=3;strokeColor=none;rotatable=0;points=[[0,0.5],[1,0.5]];portConstraint=eastwest;html=1;" vertex="1" parent="1">
          <mxGeometry x="100" y="100" width="80" height="26" as="geometry" />
        </mxCell>
        <mxCell id="GGcS_LivE_EJH9nV6EPm-19" value="&lt;font face=&quot;Helvetica&quot; style=&quot;font-size: 12px;&quot;&gt;Hiển thị các thông tin sách đang có trong kho, thêm các tính năng&lt;/font&gt;" style="html=1;verticalAlign=bottom;labelBackgroundColor=none;endArrow=open;endFill=0;dashed=1;rounded=0;entryX=0.575;entryY=0.506;entryDx=0;entryDy=0;entryPerimeter=0;fontStyle=0;exitX=-0.133;exitY=0.433;exitDx=0;exitDy=0;exitPerimeter=0;" edge="1" parent="1" source="7baba1c4bc27f4b0-10">
          <mxGeometry width="160" relative="1" as="geometry">
            <mxPoint x="520" y="348" as="sourcePoint" />
            <mxPoint x="144" y="348.4200000000001" as="targetPoint" />
            <Array as="points" />
          </mxGeometry>
        </mxCell>
        <mxCell id="GGcS_LivE_EJH9nV6EPm-20" value="&lt;font face=&quot;Helvetica&quot;&gt;Thêm, xóa, sửa sách&lt;/font&gt;" style="html=1;verticalAlign=bottom;endArrow=block;labelBackgroundColor=none;fontFamily=Verdana;fontSize=12;edgeStyle=elbowEdgeStyle;elbow=vertical;entryX=0.437;entryY=0.305;entryDx=0;entryDy=0;entryPerimeter=0;" edge="1" parent="1">
          <mxGeometry relative="1" as="geometry">
            <mxPoint x="146" y="439" as="sourcePoint" />
            <mxPoint x="545" y="439" as="targetPoint" />
          </mxGeometry>
        </mxCell>
        <mxCell id="GGcS_LivE_EJH9nV6EPm-21" value="&lt;font style=&quot;font-size: 12px;&quot;&gt;Cập nhật csdl, thông báo thành công&lt;/font&gt;" style="html=1;verticalAlign=bottom;labelBackgroundColor=none;endArrow=open;endFill=0;dashed=1;rounded=0;entryX=0.575;entryY=0.506;entryDx=0;entryDy=0;entryPerimeter=0;fontStyle=0;exitX=0.423;exitY=0.804;exitDx=0;exitDy=0;exitPerimeter=0;" edge="1" parent="1" source="7baba1c4bc27f4b0-2">
          <mxGeometry width="160" relative="1" as="geometry">
            <mxPoint x="510" y="530" as="sourcePoint" />
            <mxPoint x="146" y="519" as="targetPoint" />
            <Array as="points" />
          </mxGeometry>
        </mxCell>
      </root>
    </mxGraphModel>
  </diagram>
</mxfile>
